<?xml version="1.0" encoding="UTF-8" standalone="no"?>
<svg
   version="1.1"
   id="Layer_1"
   x="0px"
   y="0px"
   width="200"
   viewBox="0 0 200 150"
   enable-background="new 0 0 1280 983"
   xml:space="preserve"
   height="150"
   xmlns="http://www.w3.org/2000/svg"
   xmlns:svg="http://www.w3.org/2000/svg"><defs
   id="defs389" />
<g
   id="g391"
   transform="matrix(0.21330748,0,0,0.21330748,-36.529149,-30.933633)"
   style="display:inline"><rect
     style="display:none;fill:#f9fafc;fill-opacity:1;stroke-width:7.0148;stroke-linejoin:bevel;paint-order:stroke fill markers"
     id="rect391"
     width="306.4722"
     height="178.03363"
     x="1410.2808"
     y="490.86417"
     transform="translate(-784.61966,29.248383)" /><path
     fill="#00fefe"
     opacity="1"
     stroke="none"
     d="m 834.12917,802.13961 c 38.71386,4.5e-4 83.14031,-6.51376 114.308,0.002 27.74464,5.80046 59.34603,36.27034 70.75053,24.54401 9.2527,-9.51377 -21.65597,-17.73532 -21.6182,-67.53116 0.0626,-82.5621 0.21272,-165.12465 -0.0808,-247.68589 -0.23727,-66.51439 -60.85021,-121.75743 -137.66896,-123.46234 -35.62837,-0.79073 -166.15392,-1.21304 -170.3581,-1.11013 -4.07698,0.0998 -4.10876,52.39759 -16.02385,55.15717 -19.41737,4.49714 -161.75764,22.93707 -162.66123,89.11346 -0.22667,16.6044 -107.8933,12.12867 -107.9767,28.73535 -0.2032,40.46136 -0.0106,80.92699 0.43425,121.38479 0.64583,58.73427 52.47359,109.96983 119.5118,118.32669 17.2978,2.15631 35.01494,2.30336 52.54767,2.41936 47.05296,0.31135 94.1104,0.10641 142.31367,0.10641 M 832.9808,533.06506 h 44.14817 v 40.74168 h -12.81041 c -68.40633,-3e-5 -136.81288,-9e-5 -205.21897,0 -4.58591,0 -9.24804,0.42849 -13.72694,-0.17158 -2.38196,-0.31913 -6.30703,-2.36088 -6.3637,-3.72396 -0.50094,-12.08335 -0.29115,-24.18889 -0.29115,-36.84614 h 194.263 m -6.88605,82.10914 h 50.83718 v 41.06221 H 710.68818 c 0,-10.73829 0.57926,-20.95379 -0.18579,-31.09282 -0.5908,-7.81587 2.11974,-10.27757 11.37717,-10.15156 33.96623,0.46226 67.94635,0.18254 104.21641,0.18211 z"
     id="path2"
     style="fill:#787bd9;fill-opacity:1;stroke-width:2.1378" /><rect
     style="display:inline;fill:none;stroke:none;stroke-width:1.2941"
     width="423.5614"
     height="373.61758"
     x="187.24002"
     y="278.78888"
     id="rect390"
     transform="rotate(-11.838294)" /><g
     id="g398"
     transform="matrix(1.266567,-0.26548322,0.26548322,1.266567,810.88298,-153.55296)"
     style="display:inline"><ellipse
       style="display:none;fill:#f9fafc;fill-opacity:1;stroke-width:14.0128;stroke-linejoin:bevel;paint-order:stroke fill markers"
       id="ellipse398"
       cx="-330.45807"
       cy="372.27112"
       rx="156.01218"
       ry="110.60229" /><path
       fill="#faf8f6"
       opacity="1"
       stroke="none"
       d="m -179.72978,289.90231 c 0.94572,3.36873 1.86091,6.57088 2.63264,9.80723 2.93189,12.29521 6.20178,24.52705 8.60302,36.92632 2.05255,10.59881 3.4027,21.39425 2.66258,32.24874 -0.53867,7.89949 -1.59125,15.76417 -2.43231,23.64251 -0.12028,1.12679 -0.33961,2.24304 -0.51321,3.5766 -1.31425,4.50307 -2.27646,8.94147 -4.00518,13.05797 -6.36763,15.1626 -15.19855,28.72893 -27.09928,40.18485 -11.62962,11.19482 -24.95802,19.93439 -39.92156,25.82159 -10.7592,4.23299 -21.82371,7.85739 -32.99902,10.82209 -13.34445,3.54009 -27.12213,4.68118 -40.92894,5.00699 -12.47266,0.29428 -24.94693,0.74404 -37.42007,0.73005 -11.80645,-0.0131 -23.50086,-1.29531 -35.13878,-3.56207 -10.88281,-2.11957 -21.49768,-5.00618 -31.75578,-9.09785 -20.88732,-8.33144 -39.19623,-20.40305 -53.35201,-38.15482 -6.94536,-8.70969 -11.97702,-18.5178 -15.72799,-28.99511 -3.36115,-9.38841 -5.47288,-19.08757 -5.69901,-29.01583 -0.24611,-10.80579 -0.071,-21.65265 0.60793,-32.43833 0.575,-9.13457 1.86863,-18.24956 3.32488,-27.29586 1.49256,-9.27198 3.52223,-18.45948 5.40058,-27.66688 2.87562,-14.09599 5.9285,-28.15672 8.69026,-42.27463 1.17423,-6.00247 1.72143,-12.12491 2.70645,-18.16792 0.70608,-4.33182 1.45436,-8.67747 2.55999,-12.91887 1.89031,-7.25171 9.40358,-11.77282 16.74088,-10.23865 2.53198,0.5294 4.97965,2.49517 6.98403,4.33087 7.48326,6.85349 14.77741,13.91395 22.12052,20.91981 3.55764,3.39429 7.06655,6.83972 10.80846,10.48678 4.36646,4.04585 8.48903,7.90367 12.69334,11.67027 1.72693,1.54711 3.75656,2.15445 6.15252,1.57777 7.13334,-1.71695 14.24586,-3.57135 21.44916,-4.9359 16.31649,-3.0909 32.83171,-3.92541 49.41726,-4.24325 11.52202,-0.22077 22.87561,0.9104 34.23284,2.47212 4.84865,0.6667 9.69976,1.31493 14.70818,2.03849 3.44796,1.38394 5.81941,-0.56094 7.77769,-2.5635 6.63525,-6.78542 13.18713,-13.66195 19.53879,-20.7127 8.41718,-9.34356 15.74382,-19.71074 25.96494,-27.34127 0.0892,-0.0666 0.0498,-0.30574 0.0702,-0.46438 0.12052,-0.13006 0.24116,-0.2601 0.48251,-0.45023 2.63421,-0.6349 5.13292,-1.55519 7.66626,-1.66327 1.69335,-0.0722 3.64722,0.68413 5.11799,1.63598 4.93851,3.19607 7.37765,8.25681 8.85511,13.66441 2.1085,7.71735 3.76346,15.55791 5.65691,23.33495 1.67911,6.89673 3.30936,13.80831 5.16051,20.65948 2.29827,8.5062 4.7946,16.959 7.22924,25.42801 0.20004,0.6958 0.58305,1.33898 0.97743,2.15741 m -276.76914,109.33966 c -4.34287,0.50383 -8.68682,0.99868 -13.02804,1.51627 -1.51168,0.18024 -2.34707,1.01402 -2.56588,2.82999 -0.73783,6.22896 0.69369,8.03703 6.80655,7.55279 6.02062,-0.47688 12.0177,-1.36401 17.98991,-2.29667 3.46449,-0.54104 6.89851,-1.39023 10.27354,-2.35511 2.68019,-0.7662 3.88177,-6.29662 1.91106,-8.2576 -0.30396,-0.30248 -0.88859,-0.49588 -1.32487,-0.46629 -5.87943,0.39895 -11.75559,0.84644 -18.03483,1.2218 -0.52385,0.1059 -1.04769,0.21173 -2.02744,0.25482 m 254.05007,11.67642 c -0.11105,-0.081 -0.20612,-0.0655 -0.60802,-0.17975 -4.00339,-1.36088 -7.96398,-2.872 -12.02546,-4.02889 -2.63615,-0.75085 -5.40508,-1.13054 -8.14171,-1.40161 -1.95432,-0.19358 -3.01214,0.95876 -3.12659,3.2934 -1.37345,3.85872 -0.56593,5.99219 3.28061,7.6539 2.97761,1.2863 6.07595,2.30987 9.1621,3.32407 4.18223,1.37448 8.39603,2.65532 12.61245,3.92249 2.12653,0.6391 4.04088,0.0745 5.07913,-1.88271 1.21726,-2.29475 2.29598,-4.7693 0.88372,-7.42097 -0.20495,-0.3848 -0.70996,-0.6846 -1.14248,-0.86055 -1.94527,-0.79152 -3.91453,-1.52413 -5.87789,-2.2925 0,0 -0.01,0.0113 -0.0957,-0.12737 m -172.7037,-87.62914 c 0.0626,-0.11956 0.12521,-0.23916 0.18791,-0.35871 -0.0236,0.1862 -0.0472,0.37245 -0.41728,0.49048 -0.36198,-0.30243 -0.72397,-0.60487 -1.15508,-1.21614 -0.0563,-0.15023 -0.0673,-0.37321 -0.17537,-0.44041 -9.6918,-6.02977 -20.06568,-7.77552 -30.3654,-2.53056 -13.71106,6.98207 -16.66407,18.8237 -13.72968,31.96048 2.50183,11.20045 9.74721,18.7132 21.76434,20.77234 9.96566,1.70756 18.61405,-0.21964 25.8016,-7.71628 6.81562,-7.10871 12.17273,-21.15855 5.37772,-32.22373 -1.74736,-2.84552 -4.19846,-5.25889 -6.56408,-8.15458 -0.2031,-0.13008 -0.40621,-0.26016 -0.72466,-0.58288 m 76.84232,89.59789 c 2.09246,-0.88985 4.16774,-1.82315 6.2807,-2.66124 5.9696,-2.36777 9.6098,-6.68998 11.56375,-12.79718 1.10177,-3.44356 -0.73598,-6.99203 -3.85405,-8.58836 -2.57591,-1.3188 -4.14134,-0.91197 -5.43448,1.67861 -0.98499,1.97331 -1.78799,4.03805 -2.65778,6.06817 -1.87621,4.37927 -5.61541,6.91777 -10.37917,6.7888 -2.17864,-0.059 -4.39252,-0.29618 -6.51145,-0.79079 -5.37068,-1.25377 -9.67687,-4.1658 -12.93002,-8.67869 -1.25079,-1.73517 -1.18337,-3.32675 -0.0946,-4.98293 0.58089,-0.8836 1.25414,-1.71803 1.96539,-2.50238 2.7469,-3.02915 5.59972,-5.96551 8.26648,-9.06269 1.73315,-2.01288 1.65245,-4.40458 -0.14664,-5.64822 -4.93838,-3.41375 -10.39595,-5.54678 -16.42643,-5.94188 -5.83778,-0.38246 -10.51571,2.51117 -15.12858,5.56073 -3.60859,2.38561 -4.14258,4.79653 -1.24427,8.01928 2.50639,2.78699 5.41598,5.20737 8.07691,7.86042 3.48315,3.47291 3.45593,5.40851 0.48796,9.3173 -6.42636,8.4636 -15.74996,9.09697 -24.8052,7.53037 -0.97863,-0.16931 -2.16507,-1.08812 -2.61758,-1.98195 -1.3557,-2.67806 -2.4326,-5.50133 -3.54192,-8.29821 -0.54322,-1.36953 -0.81632,-3.01283 -2.79615,-2.76199 -2.54444,0.32243 -5.03233,2.41568 -5.12625,4.21066 -0.63421,12.1248 7.92181,19.42069 17.38277,20.29349 4.31445,0.39803 4.39348,0.61546 5.09854,4.87507 1.74293,10.52985 6.82476,18.88307 16.60819,23.79953 2.96784,1.49143 6.00693,2.92382 9.6188,2.31127 9.13201,-1.54885 15.5861,-6.71957 19.49089,-14.84104 2.02837,-4.21863 3.10029,-8.90819 4.48023,-13.42293 0.70159,-2.29508 1.06008,-4.72549 4.37387,-5.35321 m 13.7275,-49.83352 c 1.39614,0.84395 2.73344,1.811 4.19819,2.51143 8.18601,3.91442 16.65227,4.47155 24.91351,0.72481 10.89787,-4.94255 16.21502,-13.81865 17.17986,-25.72152 0.80888,-9.97886 -4.14678,-20.46174 -12.84784,-25.2856 -8.2653,-4.58227 -16.97737,-5.62444 -25.74758,-1.81747 -8.84851,3.841 -15.12635,10.12882 -16.85927,20.10886 -1.95511,11.25923 0.20887,21.23578 9.16313,29.47949 m -152.34518,18.87171 c -7.63762,-2.00536 -15.2497,-4.11733 -22.92687,-5.95765 -2.65596,-0.63667 -5.4755,-0.82376 -8.21699,-0.80165 -2.46539,0.0199 -3.70706,2.02486 -4.32061,4.12107 -0.57198,1.95402 0.68826,3.23786 2.34717,4.11048 1.30526,0.68664 2.54992,1.57772 3.93638,2.00637 9.10987,2.81618 18.43511,4.48123 27.9733,4.81735 3.29233,0.116 3.93818,-0.6248 4.2486,-3.92333 0.20527,-2.18131 -0.99382,-3.33422 -3.04098,-4.37264 m 217.01871,1.52063 c 7.11522,-1.83845 14.25967,-3.57305 21.33244,-5.5624 3.19234,-0.89791 6.3781,-2.03915 9.31687,-3.55478 2.77737,-1.43237 3.21981,-4.18704 1.70685,-7.70812 -1.1355,-2.6426 -3.53342,-1.4779 -5.16038,-1.10543 -7.15753,1.6386 -14.29926,3.41064 -21.32144,5.54619 -3.07306,0.93455 -5.94021,2.70032 -8.72314,4.38264 -1.97429,1.1935 -2.44925,3.79251 -1.62742,5.91973 0.74233,1.92157 2.09669,2.60754 4.47622,2.08217 m -209.82753,31.0165 c -0.91087,-2.60295 -1.85382,-3.15388 -5.1753,-2.11503 -6.77013,2.11748 -13.52183,4.31621 -20.18685,6.74067 -5.7316,2.08489 -6.73845,4.72423 -4.00253,10.90834 0.72666,1.64254 1.95472,2.17178 3.58188,1.69518 8.15632,-2.38895 16.26084,-4.94768 23.62499,-9.31636 3.58616,-2.12739 3.94124,-3.62476 2.15781,-7.9128 m 239.91834,-23.63661 c -2.18379,-0.28955 -4.37394,-0.86481 -6.55025,-0.81656 -7.36545,0.16321 -14.72573,0.55544 -22.08868,0.84226 -2.28625,0.089 -3.55439,1.00583 -3.09254,3.50884 0.0881,0.4773 0.064,0.98301 0.0366,1.47255 -0.11855,2.12451 0.75172,3.49247 2.94276,3.78608 3.94425,0.52855 7.881,1.19129 11.84405,1.48147 5.13361,0.37586 10.29033,0.59581 15.43627,0.58147 2.92233,-0.008 4.77006,-2.26918 5.21109,-5.54967 0.42904,-3.19081 0.007,-3.84628 -3.73932,-5.30644 z"
       id="path398"
       style="fill:#787bd9;fill-opacity:1;stroke-width:0.492612" /></g><g
     id="g399"
     transform="matrix(0.4050955,-1.0224143,1.0224143,0.4050955,-70.975094,574.98442)"
     style="display:inline"><path
       fill="#213441"
       opacity="1"
       stroke="none"
       d="m 24.886423,51.978004 c 5.245171,-6.948257 11.593191,-11.3806 20.142965,-12.087722 0.495655,-0.04099 0.996594,-0.02479 1.49506,-0.02417 12.432801,0.01533 29.753361,18.805672 24.412327,33.098766 C 68.2453,80.167523 61.322872,83.789913 54.105434,80.42693 48.004536,77.584202 42.754837,77.604038 36.637226,80.48324 29.163088,84.000887 21.969616,79.815188 19.776758,71.782007 17.740278,64.32168 20.520956,58.141363 24.886423,51.978006 Z"
       id="path2-8" /><path
       fill="#253643"
       opacity="1"
       stroke="none"
       d="m 48.759377,16.943871 c 3.944675,-6.125403 8.232349,-8.11157 13.317764,-6.441946 5.020737,1.648387 8.115745,6.231962 7.996284,11.842126 -0.125526,5.894867 -3.713134,10.646412 -9.15924,12.130822 -6.91293,1.884208 -13.642601,-3.997309 -13.41338,-11.873146 0.0518,-1.779952 0.718086,-3.542017 1.258572,-5.657856 z"
       id="path3-2" /><path
       fill="#243542"
       opacity="1"
       stroke="none"
       d="m 27.634911,33.667236 c -8.370257,-4.437334 -9.346182,-17.461338 -0.659966,-22.432578 4.16383,-2.383015 9.1726,-1.464799 12.741955,2.092411 3.787041,3.774154 4.802212,10.933135 2.222072,15.67003 -2.492748,4.576448 -7.064773,6.629732 -12.067718,5.410475 -0.642176,-0.156502 -1.27355,-0.357319 -2.236343,-0.740338 z"
       id="path4-4" /><path
       fill="#273743"
       opacity="1"
       stroke="none"
       d="m 22.779053,45.305656 c -1.86916,4.763066 -4.995739,7.237503 -9.774329,6.321515 C 8.18267,50.702847 5.777172,47.118408 5.044391,42.500694 4.282948,37.702362 7.868515,32.9939 12.510824,32.331322 c 4.500925,-0.642397 9.408068,3.128303 10.356768,8.13422 0.272505,1.437908 0.04296,2.970962 -0.08854,4.840114 z"
       id="path5" /><path
       fill="#263742"
       opacity="1"
       stroke="none"
       d="m 74.578255,51.608536 c -5.620346,-2.680771 -7.750977,-6.750069 -6.424324,-11.66296 1.235359,-4.574822 5.65467,-8.104529 9.82875,-7.64502 4.589089,0.505192 7.095001,3.361008 7.855957,7.749756 0.808243,4.661495 -2.083885,9.63464 -6.502243,11.137814 -1.363662,0.463932 -2.918869,0.364856 -4.75814,0.42041 z"
       id="path6" /></g></g>




































































































































































































































































































































































































</svg>
