<?xml version="1.0" encoding="UTF-8" standalone="no"?>
<svg
   version="1.1"
   id="Layer_1"
   x="0px"
   y="0px"
   width="100"
   viewBox="0 0 100 90"
   enable-background="new 0 0 97 91"
   xml:space="preserve"
   height="90"
   xmlns="http://www.w3.org/2000/svg"
   xmlns:svg="http://www.w3.org/2000/svg"><defs
   id="defs6" />





<g
   id="g8"
   transform="matrix(1.0887934,0,0,1.0887934,-4.2895846,-1.3524931)"><path
     fill="#213441"
     opacity="1"
     stroke="none"
     d="m 23.188077,44.493827 c 6.622922,-8.773358 14.638378,-14.369946 25.433924,-15.262808 0.625849,-0.05176 1.258369,-0.0313 1.887769,-0.03053 15.698528,0.01936 37.568685,23.745364 30.82472,41.79283 C 77.936044,80.087887 69.1953,84.661772 60.082056,80.415433 52.378632,76.826004 45.749993,76.85105 38.025468,80.486537 28.588095,84.928165 19.505112,79.643008 16.736255,69.499748 14.164852,60.079815 17.675932,52.276112 23.188077,44.493824 Z"
     id="path2"
     style="fill:#dbdcff;fill-opacity:1;stroke-width:1.26267" /><path
     fill="#253643"
     opacity="1"
     stroke="none"
     d="m 54.394724,11.688093 c 3.548678,-5.5104899 7.405923,-7.297271 11.980827,-5.795256 4.516716,1.4829103 7.301024,5.606352 7.193556,10.653324 -0.11292,5.303097 -3.340381,9.577646 -8.239768,10.91304 -6.218958,1.695056 -12.273054,-3.59603 -12.066844,-10.681232 0.04661,-1.601267 0.645999,-3.186441 1.132229,-5.089876 z"
     id="path3"
     style="fill:#dbdcff;fill-opacity:1;stroke-width:0.899612" /><path
     fill="#243542"
     opacity="1"
     stroke="none"
     d="M 28.373873,27.665864 C 20.467532,23.474467 19.545699,11.172313 27.750484,6.4766016 c 3.933051,-2.250937 8.664213,-1.3836135 12.035738,1.9764386 3.577144,3.5649738 4.536052,10.3271708 2.098916,14.8015238 -2.35459,4.322803 -6.673212,6.262284 -11.398872,5.110604 -0.606583,-0.147827 -1.202962,-0.337514 -2.112393,-0.699304 z"
     id="path4"
     style="fill:#dbdcff;fill-opacity:1;stroke-width:0.944575" /><path
     fill="#273743"
     opacity="1"
     stroke="none"
     d="m 20.736428,41.760601 c -1.55642,3.966131 -4.159874,6.026557 -8.138933,5.263827 -4.0152486,-0.769669 -6.0182696,-3.754377 -6.628445,-7.599476 -0.6340423,-3.995496 2.3516038,-7.91616 6.217182,-8.467879 3.74785,-0.534914 7.833953,2.604891 8.623921,6.77324 0.226911,1.197323 0.03578,2.473873 -0.07373,4.030288 z"
     id="path5"
     style="fill:#dbdcff;fill-opacity:1;stroke-width:0.832684" /><path
     style="fill:#31a354;fill-opacity:1;stroke:none;stroke-width:0.753495"
     d="M 69.124712,56.296605 C 66.69276,54.702226 63.424361,53.837816 60.746955,52.699431 55.038414,50.272267 49.3346,47.831209 43.611474,45.438644 c -1.72105,-0.719485 -3.440728,-1.443606 -5.15535,-2.178329 -1.246855,-0.534286 -2.444342,-1.003476 -3.730446,-0.267814 -2.433236,1.391837 -1.264207,3.841717 -0.386207,5.782939 1.148367,2.539032 2.325034,5.067622 3.501222,7.593985 0.393186,0.844522 1.356011,2.225947 1.286061,3.17173 -0.08237,1.113532 -0.949181,2.486323 -1.379434,3.515522 -1.045303,2.500402 -2.092547,5.002613 -3.110326,7.514233 -0.769005,1.897726 -1.545181,3.949698 0.538501,5.350698 1.25013,0.840552 2.506332,0.354564 3.72854,-0.214462 1.725475,-0.803317 3.452158,-1.605602 5.167334,-2.430798 5.93337,-2.854606 11.933186,-5.571153 17.869717,-8.419452 2.325646,-1.115831 4.921938,-2.012605 7.113795,-3.370955 1.94019,-1.202389 1.975969,-3.939686 0.06983,-5.189339 z"
     id="path7"
     transform="matrix(0.91844789,0,0,0.91844789,3.9397599,1.2421944)" /><path
     fill="#263742"
     opacity="1"
     stroke="none"
     d="m 81.347884,45.491739 c -4.630024,-2.208411 -6.385231,-5.560685 -5.292337,-9.607909 1.017685,-3.768723 4.658299,-6.676486 8.096892,-6.297943 3.780476,0.416175 5.844839,2.768787 6.471712,6.384224 0.665829,3.840125 -1.716697,7.936986 -5.356526,9.175296 -1.123381,0.382185 -2.404555,0.300568 -3.919741,0.346332 z"
     id="path6"
     style="fill:#dbdcff;fill-opacity:1;stroke-width:0.823797" /></g>
</svg>
